# xmcd
#
# Track frame offsets: 
#        150
#        16276
#        35991
#        57055
#        76916
#        104128
#        110368
#        128619
#        149200
#        170025
#        189068
#        223463
#        237329
#        242603
#
# Disc length: 3464 seconds
#
# Revision: 0
# Processed by: cddbd v1.5.2PL0 Copyright (c) Steve Scherf et al.
# Submitted via: ExactAudioCopy v0.99pb4
#
DISCID=cd0d860e
DTITLE=Louis Armstrong - Золотая серия
DYEAR=2006
DGENRE=Blues
TTITLE0=When it's sleepy time down south
TTITLE1=Indiana
TTITLE2=Someday
TTITLE3=Perdido
TTITLE4=That's my desire
TTITLE5=Baby won't you please come home
TTITLE6=Blueberry hill
TTITLE7=Rockin' chair
TTITLE8=Just wait till you see my baby do the charleston
TTITLE9=Livin' high
TTITLE10=Papa-de-da-da
TTITLE11=Cake-walking babies from home
TTITLE12=Canal street blues
TTITLE13=Royal garden blues
EXTD=
EXTT0=
EXTT1=
EXTT2=
EXTT3=
EXTT4=
EXTT5=
EXTT6=
EXTT7=
EXTT8=
EXTT9=
EXTT10=
EXTT11=
EXTT12=
EXTT13=
PLAYORDER=
